<svg width="130" height="146" viewBox="0 0 130 146" fill="none" xmlns="http://www.w3.org/2000/svg">
<path fill-rule="evenodd" clip-rule="evenodd" d="M70.4136 1.51806C68.6911 0.52356 66.7371 0 64.7481 0C62.7591 0 60.8052 0.52356 59.0827 1.51806L5.66546 32.3511C3.94346 33.3453 2.5134 34.7752 1.51894 36.497C0.524472 38.2188 0.000618681 40.1721 0 42.1605V103.833C0 107.88 2.16259 111.622 5.66546 113.642L59.0827 144.482C60.8052 145.476 62.7591 146 64.7481 146C66.7371 146 68.6911 145.476 70.4136 144.482L123.831 113.649C125.554 112.654 126.984 111.223 127.979 109.5C128.973 107.777 129.497 105.823 129.496 103.833V42.1605C129.496 40.1721 128.972 38.2188 127.977 36.497C126.983 34.7752 125.553 33.3453 123.831 32.3511L70.4136 1.51158V1.51806ZM63.9388 9.92236C64.1849 9.78029 64.464 9.7055 64.7481 9.7055C65.0323 9.7055 65.3114 9.78029 65.5575 9.92236L114.928 38.4245L64.7481 67.3928L14.5683 38.4245L63.9388 9.92236V9.92236ZM9.71222 46.8418V103.84C9.71222 104.422 10.023 104.953 10.5216 105.238L59.892 133.74V75.8101L9.71222 46.8418ZM69.6042 133.74L118.975 105.238C119.22 105.096 119.424 104.892 119.566 104.647C119.708 104.402 119.783 104.123 119.784 103.84V46.8353L69.6042 75.8036V133.734V133.74Z" fill="white"/>
</svg>
