<svg width="40px" height="40px" viewBox="0 0 40 40" version="1.1" xmlns="http://www.w3.org/2000/svg" xmlns:xlink="http://www.w3.org/1999/xlink"><g><path d="M29.3941157,1 C29.7173298,1 30.0406129,1.07305396 30.3518438,1.1831009 L30.9947917,1.4132915 L31.8513496,1.72684221 L33.4640029,2.32914403 L34.9714394,2.90299547 L36.226306,3.38980195 L36.9528261,3.6775203 L37.415339,3.8647375 C37.9753643,4.09480091 38.3731713,4.32015642 38.6303891,4.65596318 C38.846271,4.93780444 38.9645389,5.29770856 38.9931391,5.80736225 L38.9984256,5.93793694 L39,15.1998943 C39,17.2504192 38.4698236,18.648602 37.1346056,20.0105579 L36.938354,20.2049431 C36.7029354,20.4315936 36.4447909,20.6580527 36.162648,20.8871729 L35.9149045,21.0842799 L35.6552285,21.2830894 L35.3834421,21.4840006 L35.0993671,21.6874126 L34.8028256,21.8937248 C34.7523532,21.928374 34.7013539,21.9631606 34.6498241,21.9980931 L34.3342487,22.2095037 L34.0057615,22.4248123 L33.6641844,22.644418 L33.3093393,22.86872 L32.7518047,23.2148518 L32.1634154,23.5737955 L31.3298614,24.0746454 L30.2071095,24.7409706 C29.9280221,24.9021026 29.6244981,25 29.3941157,25 C29.1755274,25 28.8594122,24.9018531 28.5922163,24.7405742 L27.4335427,24.0446743 L26.5753543,23.5234861 L25.9708072,23.1509348 L25.3990475,22.7923985 L25.0357689,22.5604026 L24.6865814,22.333499 C24.6295471,22.2960808 24.5730919,22.2588558 24.5172117,22.2218146 L24.1888,22.0016968 L23.8739983,21.7855345 C23.8226548,21.7498118 23.7718703,21.714235 23.721641,21.6787946 L23.4268933,21.4677132 L23.1452744,21.2594507 L22.8765919,21.0535525 C20.7346511,19.3804666 19.8676318,17.89842 19.8038227,15.4930333 L19.8009393,15.3464483 L19.8,6.06372131 C19.8,5.43601765 19.9116305,5.00799487 20.1461529,4.68313985 C20.4025272,4.3280163 20.8075715,4.09540125 21.3849727,3.8646107 L22.6494571,3.361123 L23.9480708,2.85272555 L25.056544,2.42513991 L26.156995,2.00771838 L26.9382688,1.71726653 L27.6515396,1.45862232 L28.0758369,1.30938552 C28.2093206,1.26319242 28.3344079,1.22073589 28.4497548,1.1825681 C28.7605571,1.08488332 29.0714169,1 29.3941157,1 Z M29.3941157,2.58031238 C29.2771315,2.58031238 29.1185242,2.6151288 28.9395998,2.68356706 L28.5883688,2.823491 L27.9739555,3.06152539 L26.270024,3.70763718 L23.252773,4.84794107 L22.414491,5.1722571 L22.1256693,5.28635936 L21.868875,5.38967906 C21.6700702,5.4698399 21.5413032,5.55574236 21.462545,5.69781225 C21.3924647,5.82422825 21.3613354,5.9927908 21.3505324,6.23357388 L21.3470927,6.34127598 L21.3470927,14.9113836 L21.3483351,15.0674809 C21.3804136,17.0755485 22.0414951,18.2647254 23.6023427,19.549705 L23.8496083,19.7482734 C23.8920146,19.7815352 23.9350215,19.8148909 23.9786337,19.8483558 L24.2476064,20.0505795 L24.5313244,20.2561652 L24.8300066,20.4658532 L25.1438723,20.6803836 L25.4731406,20.9004965 L25.996402,21.2427522 L26.7500376,21.7255401 L28.7377924,22.9825467 C28.9986265,23.1562931 29.2129346,23.2513897 29.3941157,23.2513897 C29.5869727,23.2513897 29.7903635,23.1560969 30.0620763,22.9826302 L32.1745608,21.6335151 L32.7396847,21.2684967 L33.2687884,20.9207263 L33.6018682,20.6971486 L33.9194716,20.4792671 L34.2218116,20.266294 C34.3200714,20.1960335 34.4158227,20.1264598 34.5091013,20.0574415 L34.7815536,19.8519216 C36.5931028,18.4571278 37.3803431,17.2405795 37.4491459,15.0710516 L37.4529025,14.9105885 L37.4529025,6.34021076 L37.4517039,6.23451347 C37.4459832,5.99753017 37.418609,5.82684978 37.3467407,5.69720839 C37.2690106,5.55699316 37.1383531,5.46768415 36.9323438,5.39015636 L35.269234,4.76637667 L32.3616089,3.65986934 L30.8961902,3.09500608 L30.1060468,2.78634542 C30.0486429,2.76372473 29.9935709,2.74196302 29.9409968,2.72112308 C29.7250064,2.6398471 29.53114,2.58031238 29.3941157,2.58031238 Z M28.2566505,8.29979533 C28.2566505,9.00570336 28.8429852,9.59493238 29.5465869,9.59493238 C30.2677787,9.59493238 30.8365234,9.02903917 30.8365234,8.29979533 C30.8365234,7.5938873 30.2619153,7.01632618 29.5465869,7.01632618 C28.8429852,7.01632618 28.2566505,7.5938873 28.2566505,8.29979533 Z M28.2566505,12.6810923 C28.2566505,13.3753324 28.8429852,13.9587275 29.5465869,13.9587275 C30.2677787,13.9587275 30.8365234,13.3986682 30.8365234,12.6810923 C30.8365234,11.9751843 30.2619153,11.3976231 29.5465869,11.3976231 C28.8429852,11.3976231 28.2566505,11.9751843 28.2566505,12.6810923 Z M28.2566505,17.0565553 C28.2566505,17.7566294 28.8429852,18.3400245 29.5465869,18.3400245 C30.2677787,18.3400245 30.8365234,17.7799652 30.8365234,17.0565553 C30.8365234,16.3448133 30.2619153,15.7672522 29.5465869,15.7672522 C28.8429852,15.7672522 28.2566505,16.3448133 28.2566505,17.0565553 Z"></path></g></svg>