<svg width="80" height="80" xmlns="http://www.w3.org/2000/svg"><g fill="none" fill-rule="evenodd"><path d="M0 0h80v80H0z"/><path d="M69.209 70.045c6.309 0 9.76-3.525 9.76-9.983v-41.08c0-6.494-3.451-9.982-10.02-9.982H9.797C3.45 9 0 12.414 0 18.982v41.08c0 6.532 3.451 9.983 10.02 9.983h59.189zm-29.502-24.9c-1.336 0-3.08-.631-4.602-2.19l-30.28-29.65c1.224-1.076 2.968-1.633 5.232-1.633h58.855c2.338 0 4.193.668 5.455 1.892L44.346 42.955c-1.596 1.596-3.266 2.19-4.639 2.19zM3.414 63.81c-.482-1.077-.705-2.338-.705-3.823v-40.93c0-1.336.186-2.487.557-3.452L28.24 39.986 3.414 63.811zm72.252-.372L51.211 39.986l24.603-24.01c.297.891.446 1.93.446 3.08v40.932c0 1.336-.186 2.487-.594 3.451zm-6.754 3.897H10.057c-2.078 0-3.711-.482-4.936-1.373l25.049-24.12 3.191 3.117c2.19 2.115 4.38 2.895 6.346 2.895 2.004 0 4.193-.78 6.383-2.895l3.191-3.117 24.79 23.861c-1.225 1.076-2.97 1.633-5.159 1.633z" fill="#D5D5D5" fill-rule="nonzero"/></g></svg>